<svg version="1.1" id="Layer_1" xmlns="http://www.w3.org/2000/svg" xmlns:xlink="http://www.w3.org/1999/xlink" x="0px" y="0px"
	 width="100%" height="50px" viewBox="0 0 251 90" enable-background="new 0 0 251 90" xml:space="preserve"   >
<path fill="#ffffff" opacity="1.000000" stroke="none" 
	d="
M188.000000,91.000000 
	C125.333344,91.000000 63.166683,91.000000 1.000017,91.000000 
	C1.000011,61.000011 1.000011,31.000023 1.000006,1.000025 
	C84.666649,1.000016 168.333298,1.000016 251.999954,1.000008 
	C251.999969,30.999975 251.999969,60.999950 251.999985,90.999962 
	C230.833328,91.000000 209.666672,91.000000 188.000000,91.000000 
M91.000427,75.999664 
	C91.000427,75.999664 90.993393,76.003593 91.162498,76.452538 
	C91.366714,76.764008 91.648308,76.870018 92.616684,77.104156 
	C94.705505,78.416023 96.794327,79.727890 98.952026,81.873230 
	C98.673538,87.720139 94.586494,84.281479 92.074677,84.711296 
	C91.221642,84.857269 90.393295,85.147507 89.553673,85.371826 
	C89.848701,86.195145 89.912338,87.259651 90.477272,87.801651 
	C93.557281,90.756638 100.909889,89.022049 103.022278,84.529541 
	C103.022278,84.529541 103.142921,84.084824 103.703384,83.699104 
	C103.743568,82.813774 103.783745,81.928436 103.908134,80.305611 
	C103.165329,79.201172 102.637123,77.818062 101.636948,77.047836 
	C99.241173,75.202881 96.623436,73.646149 94.001892,71.178062 
	C95.134430,70.516762 96.227333,69.406494 97.409050,69.302185 
	C99.071892,69.155396 100.800606,69.754730 103.443863,70.190392 
	C102.793465,68.287712 102.420029,67.195236 101.961342,65.349846 
	C101.581551,62.549782 101.201759,59.749718 100.863998,56.148140 
	C100.516441,53.436108 100.168884,50.724075 99.973610,47.239609 
	C100.253906,43.716431 100.534210,40.193249 101.581337,36.888142 
	C102.941536,36.518837 104.740128,36.579281 105.591301,35.710987 
	C111.428009,29.756895 117.912903,29.722775 125.258072,33.716816 
	C132.344818,37.625977 131.251221,45.569748 133.422623,52.606739 
	C137.672836,45.893166 135.444565,36.855141 128.678604,30.404417 
	C117.467400,22.567999 105.423637,25.357845 100.330704,37.161968 
	C98.942612,40.440731 97.554512,43.719490 96.067230,47.670658 
	C96.117233,48.119320 96.167236,48.567986 96.110046,49.739799 
	C96.175598,50.463589 96.241150,51.187374 96.163483,52.718399 
	C96.841927,55.439999 97.520378,58.161594 98.083450,61.460510 
	C98.036339,61.651012 97.989220,61.841518 97.305344,61.764076 
	C96.216568,61.476883 95.127800,61.189690 93.572571,60.324562 
	C90.374947,59.177864 87.177315,58.031166 83.505775,56.346436 
	C82.170502,55.631516 80.792885,54.984955 79.507904,54.188854 
	C75.663002,51.806747 71.854347,49.366119 68.005234,46.998894 
	C68.005234,46.998894 68.052780,46.967377 67.774071,46.384109 
	C66.516876,45.585041 65.259682,44.785973 63.613163,43.435955 
	C61.773094,42.680992 59.933029,41.926029 57.305408,40.969238 
	C54.459270,40.643562 51.613132,40.317886 48.533611,39.549896 
	C48.223320,39.464508 47.913033,39.379120 47.327503,39.105175 
	C47.100925,39.043270 46.885086,39.069527 45.901836,39.079475 
	C44.854691,39.144680 43.807541,39.209885 41.910770,39.173355 
	C39.076618,39.206318 36.242470,39.239281 32.424625,39.191772 
	C29.258520,39.207207 26.092417,39.222645 22.501307,39.130516 
	C22.501307,39.130516 22.075636,39.235409 21.302183,39.174557 
	C19.264227,39.165829 16.959553,38.771660 17.109064,42.689693 
	C17.765814,43.798416 18.422564,44.907143 19.110958,46.661907 
	C19.721664,47.478493 20.332371,48.295078 21.219736,49.618210 
	C21.840391,50.017067 22.461046,50.415924 23.654911,51.169060 
	C26.073887,53.760220 28.492861,56.351376 30.267675,58.992085 
	C29.841583,59.046593 29.415493,59.101097 28.432035,59.043209 
	C27.964951,59.153053 27.497864,59.262894 27.030779,59.372738 
	C27.062218,59.529964 27.093655,59.687195 27.125093,59.844421 
	C27.746599,59.844421 28.368103,59.844421 29.442945,59.977589 
	C29.442945,59.977589 29.909000,60.055317 30.401840,60.662231 
	C32.158447,60.662231 33.915051,60.662231 35.671658,60.662231 
	C35.993542,60.247280 36.315430,59.832329 36.637318,59.417377 
	C34.371944,56.958008 32.106575,54.498638 29.720675,51.403816 
	C28.802467,50.975769 27.884260,50.547726 26.967573,50.053680 
	C26.967573,50.053680 26.902128,50.062317 26.748030,49.606045 
	C26.566303,49.320004 26.310780,49.137032 25.810949,48.728981 
	C25.810949,48.728981 25.537806,48.479691 25.586658,48.471004 
	C25.586658,48.471004 25.522224,48.471588 25.057346,47.898762 
	C23.871311,46.509739 22.685278,45.120716 21.111116,43.277138 
	C23.690603,43.068989 25.322550,42.937302 27.855087,42.886898 
	C33.111076,43.157970 38.367062,43.429043 44.120655,43.794853 
	C44.956654,43.742500 45.792656,43.690144 47.095497,43.877987 
	C47.441025,43.854874 47.786556,43.831760 48.712688,43.888531 
	C49.100681,43.854164 49.488678,43.819801 50.726315,43.938583 
	C52.155666,43.992825 53.585014,44.047070 55.471256,44.634743 
	C58.969639,46.425819 62.468025,48.216896 66.158340,50.440624 
	C66.355011,50.749889 66.631065,50.859787 67.460251,50.961147 
	C67.626221,50.999043 67.792191,51.036942 68.281349,51.672512 
	C70.318314,53.057640 72.249237,54.644154 74.415031,55.784630 
	C78.517700,57.945026 82.755104,59.849545 87.604233,61.980091 
	C88.054764,62.011253 88.505302,62.042416 89.209633,62.626812 
	C89.669418,64.165131 90.129204,65.703453 90.361389,67.519791 
	C90.361389,67.519791 90.606529,67.782478 90.135796,68.312431 
	C90.087517,70.230713 90.039238,72.149002 90.081039,74.529793 
	C90.081039,74.529793 90.226822,74.977890 90.232277,75.462845 
	C90.393585,75.775551 90.648361,75.956863 91.000427,75.999664 
M215.011566,31.012972 
	C215.011566,31.012972 215.002945,30.981876 214.469818,31.147310 
	C214.103363,31.569366 213.736923,31.991425 213.254562,32.402294 
	C213.254562,32.402294 213.242996,32.518158 212.796021,32.894424 
	C212.568726,33.600948 212.341446,34.307476 212.055435,35.000557 
	C212.055435,35.000557 212.069962,35.058693 211.426376,35.386776 
	C208.293121,41.007534 206.811798,46.845276 209.197327,53.147869 
	C210.056747,55.418461 211.022736,57.648720 211.105301,59.904110 
	C209.662048,59.634098 208.219742,59.135571 206.775391,59.129581 
	C193.002090,59.072483 179.224869,58.916725 165.456451,59.183987 
	C159.291916,59.303650 153.144775,60.319523 146.239883,60.998539 
	C144.746780,60.998539 143.253662,60.998539 141.209229,60.998539 
	C142.101746,59.592743 142.578400,58.841984 143.511093,57.968086 
	C143.511093,57.968086 143.948837,57.790565 144.449020,57.763031 
	C144.657516,57.511513 144.866013,57.259995 145.623489,56.764580 
	C146.418365,56.212051 147.213242,55.659523 148.941818,55.011208 
	C159.964981,54.948544 170.988129,54.885883 182.929703,54.942791 
	C187.096161,54.942791 191.262619,54.942791 195.429077,54.942791 
	C195.497986,54.305752 195.566879,53.668716 195.635788,53.031677 
	C191.419205,52.415813 187.202621,51.799950 182.070862,51.043079 
	C178.048080,51.090351 174.025314,51.137623 169.126083,51.045677 
	C162.094101,51.088509 155.062119,51.131340 147.376907,51.099518 
	C146.550568,51.733826 145.724213,52.368134 144.479385,53.114769 
	C144.479385,53.114769 144.074081,53.267963 143.572357,53.250454 
	C143.373230,53.505695 143.174103,53.760941 142.589722,54.112469 
	C142.589722,54.112469 142.225754,54.271317 141.526764,54.282085 
	C138.183105,57.008522 134.839432,59.734959 131.495773,62.461395 
	C131.792847,63.197636 132.089935,63.933872 132.387009,64.670105 
	C138.589417,64.386391 144.791840,64.102676 151.841721,63.970985 
	C153.561264,63.927261 155.280792,63.883537 157.892365,63.947453 
	C175.282059,63.576878 192.671768,63.206303 210.677277,62.928764 
	C211.088486,62.886086 211.499710,62.843407 212.747253,62.918579 
	C214.804367,62.716045 216.861481,62.513515 220.551590,62.150208 
	C212.202301,54.494419 211.834625,46.533600 214.698868,37.677269 
	C217.782654,35.713627 220.866440,33.749989 224.649078,31.981745 
	C226.407028,32.669346 228.164993,33.356949 230.216843,34.649387 
	C231.220184,36.371994 232.223526,38.094604 233.170197,40.670486 
	C236.453049,48.120918 230.931412,54.602009 230.044724,61.593391 
	C230.574692,61.829842 231.104675,62.066292 231.634644,62.302742 
	C233.370819,59.864544 235.106995,57.426346 236.987701,54.193813 
	C238.394714,49.124859 239.362091,44.052040 237.043182,38.232101 
	C236.716537,37.140263 236.389908,36.048424 235.900101,34.494823 
	C235.714737,34.201389 235.452103,34.019527 234.964279,33.259377 
	C227.104797,25.576498 218.757645,19.758455 206.713715,22.990053 
	C200.623077,24.624281 194.190582,24.984425 186.988037,25.960752 
	C176.670578,25.284168 166.353134,24.607582 155.531982,23.333071 
	C146.054413,21.868536 136.576843,20.404003 126.558990,18.366760 
	C124.721893,18.317036 122.884789,18.267313 120.543785,18.071060 
	C120.371346,18.041683 120.198906,18.012306 119.473289,17.365026 
	C116.332024,17.301104 113.190750,17.237183 109.258057,17.009604 
	C108.182373,16.958092 107.106689,16.906580 105.642479,16.304604 
	C104.760399,16.261509 103.878319,16.218414 102.238495,16.046080 
	C100.528839,16.046080 98.819176,16.046080 96.682533,16.046080 
	C97.389824,15.069133 97.733116,14.594964 98.939499,14.044573 
	C103.587219,13.295735 108.234940,12.546898 113.813301,11.922251 
	C117.741478,11.322252 122.243546,13.500719 125.677811,10.509434 
	C125.583160,9.940914 125.488510,9.372394 125.393860,8.803874 
	C121.233200,9.264474 117.072540,9.725074 112.089165,10.067357 
	C110.706825,10.087665 109.324478,10.107972 107.441788,9.778969 
	C107.316460,9.196915 107.191124,8.614861 107.738014,7.710736 
	C110.163193,7.747262 112.588379,7.783788 115.893730,7.933259 
	C123.945137,7.871119 131.996552,7.808979 140.682831,7.896801 
	C141.115143,7.867447 141.547455,7.838093 142.826782,7.949623 
	C144.534531,7.911411 146.242294,7.873200 148.424332,7.993053 
	C148.424332,7.993053 148.913467,8.096273 149.322540,8.634479 
	C150.204346,8.703473 151.086136,8.772468 152.485214,8.931026 
	C152.656799,8.896758 152.828400,8.862490 153.654343,9.144236 
	C154.802673,9.310742 155.950989,9.477248 157.695938,9.844381 
	C158.112518,9.894908 158.529083,9.945434 159.370667,10.624710 
	C161.582245,11.032453 163.793839,11.440195 166.445908,11.983680 
	C166.445908,11.983680 166.901016,12.056728 167.395828,12.622470 
	C174.496475,14.841827 181.597137,17.061186 188.697784,19.280544 
	C188.918884,18.669580 189.139999,18.058615 189.361099,17.447651 
	C184.865189,15.293030 180.502075,12.779253 175.845963,11.057940 
	C165.899811,7.380937 155.842224,3.927576 144.521530,4.110915 
	C144.359192,4.069396 144.196838,4.027878 143.537933,3.329645 
	C141.037796,3.282977 138.537659,3.236308 135.291000,3.036482 
	C134.534256,3.086413 133.777512,3.136345 132.500778,3.117525 
	C132.327469,3.140579 132.154160,3.163632 131.248108,3.036073 
	C130.505463,3.086235 129.762833,3.136397 128.499466,3.117531 
	C128.325882,3.140476 128.152298,3.163422 127.064339,3.033651 
	C120.436127,3.431068 113.807922,3.828485 106.505173,4.237007 
	C105.688004,4.562141 104.870834,4.887275 103.322464,5.107936 
	C102.199295,5.362863 101.076134,5.617789 99.289070,5.949546 
	C98.325966,6.373443 97.362862,6.797338 95.746834,7.611747 
	C87.165970,8.788260 78.585114,9.964772 69.180954,11.062503 
	C64.426117,12.016256 59.671280,12.970009 54.134579,13.974660 
	C52.151573,14.408340 50.168568,14.842018 47.296051,15.209809 
	C43.524166,15.769777 39.752277,16.329744 35.187725,16.995159 
	C34.123344,17.083008 33.058964,17.170856 31.215727,17.088884 
	C30.155922,17.108223 29.096115,17.127562 27.263668,17.087444 
	C25.285227,17.607588 23.306786,18.127731 21.328344,18.647875 
	C21.274519,19.125467 21.220695,19.603060 21.166870,20.080654 
	C23.126757,20.310291 25.086643,20.539930 27.932936,20.930943 
	C32.948383,20.569780 37.963829,20.208618 43.821373,19.967455 
	C46.415829,19.641600 49.033066,19.438864 51.599953,18.963984 
	C56.773483,18.006870 61.919624,16.901676 67.874001,15.903649 
	C68.932228,15.954929 69.990463,16.006208 70.743050,16.749245 
	C69.240799,19.239328 70.430046,20.052992 72.814980,19.909588 
	C77.861107,19.606163 82.901901,19.213938 88.713310,19.233767 
	C95.831451,19.758303 102.949585,20.282841 110.909775,20.933325 
	C112.613647,20.897577 114.317513,20.861830 116.666283,20.914253 
	C117.097275,20.877625 117.528259,20.840996 118.426270,20.957718 
	C118.426270,20.957718 118.912308,21.031218 119.329865,21.557856 
	C120.203247,21.651951 121.076637,21.746046 122.819267,21.983027 
	C124.751236,22.218748 126.692879,22.393896 128.613510,22.700642 
	C137.086517,24.053869 145.553482,25.445007 154.791977,27.016270 
	C159.856476,27.953299 164.920990,28.890326 170.742096,29.965403 
	C171.506668,29.905321 172.271225,29.845240 173.661255,29.885118 
	C174.080582,29.855291 174.499893,29.825464 175.855453,29.949757 
	C186.395660,30.126804 196.862015,30.205725 207.220367,27.288414 
	C211.116623,26.191074 215.571472,27.068842 219.770081,27.139730 
	C219.827271,27.140696 219.863770,28.367096 219.483032,29.089975 
	C219.483032,29.089975 219.066116,29.209875 218.435974,29.096300 
	C217.927673,29.398035 217.419388,29.699768 216.479294,30.093279 
	C216.479294,30.093279 216.060852,30.233868 215.561722,30.230734 
	C215.234756,30.386847 215.041412,30.643539 215.011566,31.012972 
M30.338486,29.047012 
	C29.893747,29.083479 29.449011,29.119946 28.237047,29.052073 
	C26.537449,29.524971 24.837849,29.997869 23.138250,30.470768 
	C23.210781,30.838999 23.283312,31.207230 23.355843,31.575459 
	C25.238819,31.997847 27.121796,32.420235 29.929501,32.964870 
	C34.612930,32.916885 39.296360,32.868896 44.843925,32.963032 
	C48.579781,33.266827 52.315639,33.570618 56.536102,33.956734 
	C56.536102,33.956734 57.013382,33.839180 57.660873,33.904003 
	C58.092999,33.880337 58.525127,33.856670 59.807110,33.987343 
	C66.330177,35.567139 72.764999,35.333248 79.823799,32.950195 
	C82.035507,31.270061 84.392883,29.735949 86.341461,27.792048 
	C86.753059,27.381437 85.862076,24.535767 85.240112,24.406597 
	C81.873428,23.707396 78.402672,23.509296 74.078369,23.005270 
	C69.400887,22.989746 64.723412,22.974220 59.481186,22.313040 
	C46.796787,22.313040 34.112389,22.313040 21.427990,22.313040 
	C21.417599,22.982481 21.407206,23.651922 21.396812,24.321363 
	C26.241867,24.498739 31.086922,24.676115 36.425152,24.974783 
	C36.592213,24.997953 36.759274,25.021124 37.522114,25.659946 
	C45.974724,26.038101 54.427334,26.416256 63.657940,26.927332 
	C64.440323,26.903404 65.222702,26.879475 66.891006,26.932728 
	C70.879372,27.414053 74.867729,27.895376 78.856094,28.376698 
	C78.729645,28.585213 78.629730,28.818455 78.466957,28.993103 
	C78.366882,29.100475 78.170692,29.118261 77.166916,29.025511 
	C71.805031,29.020470 66.442024,28.953863 61.082039,29.052145 
	C59.680351,29.077847 58.288063,29.616137 55.975571,29.989592 
	C51.347454,29.993162 46.719337,29.996733 41.437813,29.472372 
	C37.958961,29.366711 34.480110,29.261047 30.338486,29.047012 
M186.599060,66.330635 
	C185.743988,67.267944 184.222900,68.156059 184.149384,69.151100 
	C183.834686,73.411865 183.946548,77.704140 183.317871,82.427971 
	C180.184692,86.339012 177.343033,86.199432 173.995148,81.051994 
	C173.943237,77.036072 173.891327,73.020149 173.979630,68.281563 
	C173.330978,67.304665 172.682327,66.327766 172.033676,65.350868 
	C171.060394,66.336632 169.205017,67.373161 169.258362,68.299850 
	C169.581879,73.921349 170.340698,79.517799 171.063004,85.852768 
	C173.844421,90.379265 178.461761,89.499260 182.123016,88.482018 
	C184.200989,87.904663 185.443710,84.321014 187.664062,81.488159 
	C187.457794,76.642174 187.251541,71.796196 187.001083,66.997086 
	C187.001083,66.997086 187.054932,66.962173 186.599060,66.330635 
M4.278989,82.407158 
	C3.874649,84.156158 3.470308,85.905151 2.736696,89.078430 
	C4.576425,87.567993 5.327869,87.186737 5.739131,86.576309 
	C9.188682,81.456116 13.985227,81.572044 17.567984,86.647537 
	C18.229548,87.584740 20.164221,87.623268 21.511280,88.076584 
	C21.685297,86.850227 22.342115,85.438187 21.953665,84.428154 
	C19.714174,78.605156 17.227526,72.877213 14.696739,66.487549 
	C13.229665,66.809105 10.821128,66.704590 10.450934,67.522568 
	C8.322367,72.225838 6.676692,77.147644 4.278989,82.407158 
M144.446472,67.351585 
	C143.059769,70.630592 141.673080,73.909599 140.099335,77.549423 
	C140.099335,77.549423 140.003464,77.944374 139.548111,78.151802 
	C139.444336,78.448883 139.340561,78.745964 139.095932,79.468475 
	C139.095932,79.468475 138.999985,79.906219 138.383316,80.284164 
	C137.532272,82.641563 136.681244,84.998962 135.830215,87.356361 
	C136.350327,87.570717 136.870453,87.785065 137.390564,87.999420 
	C138.275528,86.390251 139.160477,84.781090 140.935364,83.072838 
	C142.765381,83.055977 144.660187,82.737701 146.405914,83.112946 
	C147.937363,83.442139 149.363388,84.454285 150.722656,85.338890 
	C152.132233,86.256256 153.405640,87.382866 154.738602,88.417961 
	C154.814896,86.646347 155.418777,84.688309 154.870758,83.137291 
	C153.065201,78.027405 150.842636,73.064873 148.770020,67.543716 
	C148.510818,67.346558 148.251633,67.149399 147.678925,66.420280 
	C146.796600,66.591774 145.914291,66.763268 144.446472,67.351585 
M242.638199,65.135521 
	C242.146774,65.069763 241.655014,64.944344 241.163986,64.947258 
	C234.525589,64.986572 229.985031,68.952034 229.019623,75.155914 
	C227.810501,82.925980 231.999008,87.595848 235.865402,88.765373 
	C241.820602,90.566734 249.145126,86.803261 250.769455,81.235184 
	C253.003967,73.575439 250.310913,67.741982 242.638199,65.135521 
M45.471733,72.969521 
	C44.029301,71.165123 42.724277,69.220963 41.088768,67.612946 
	C40.219048,66.757851 38.733025,66.025291 37.610485,66.132301 
	C36.996880,66.190796 36.142017,68.104095 36.115406,69.198448 
	C35.978035,74.847633 36.028763,80.503365 36.140144,86.154320 
	C36.155205,86.918556 36.882385,87.668762 37.279827,88.425461 
	C37.888660,88.397484 38.497498,88.369499 39.106331,88.341522 
	C39.367722,83.627731 39.629116,78.913940 39.920727,73.655167 
	C44.194904,78.943855 48.199303,83.898727 52.203705,88.853607 
	C52.725971,88.603989 53.248238,88.354370 53.770508,88.104752 
	C53.254154,80.594582 57.525509,72.970428 52.691475,65.010658 
	C48.172001,69.264473 50.687275,73.954636 50.802670,79.334778 
	C48.800426,76.922211 47.376740,75.206764 45.471733,72.969521 
M207.606995,65.103821 
	C206.613434,65.100182 205.505707,64.810936 204.650269,65.152863 
	C202.914642,65.846596 201.315491,66.881828 199.660095,67.776299 
	C201.389572,68.348961 203.124847,68.905182 204.842911,69.510262 
	C205.132965,69.612411 205.348831,69.925133 206.042145,70.522209 
	C206.042145,74.895081 205.857925,79.666275 206.154144,84.407455 
	C206.243286,85.834015 207.668945,87.177071 208.482376,88.558380 
	C209.333038,87.213455 210.835953,85.906761 210.917435,84.516747 
	C211.213715,79.461472 211.034363,74.378319 211.034363,69.226624 
	C212.245361,69.226624 212.904694,69.317963 213.528564,69.207993 
	C214.916641,68.963303 216.286972,68.617882 217.664536,68.313515 
	C216.435150,67.242767 215.362305,65.694443 213.935272,65.226738 
	C212.290665,64.687714 210.333282,65.102943 207.606995,65.103821 
M69.147919,85.668617 
	C70.096420,86.810501 71.044922,87.952385 72.151840,89.284981 
	C74.984123,84.506012 74.611023,68.184174 71.227303,64.510201 
	C70.409309,66.801170 69.317238,68.570045 69.215889,70.393990 
	C68.949738,75.183601 69.115166,79.997200 69.147919,85.668617 
z"/>
<path fill="#F4D160" opacity="1.000000" stroke="none" 
	d="
M243.011734,65.187820 
	C250.310913,67.741982 253.003967,73.575439 250.769455,81.235184 
	C249.145126,86.803261 241.820602,90.566734 235.865402,88.765373 
	C231.999008,87.595848 227.810501,82.925980 229.019623,75.155914 
	C229.985031,68.952034 234.525589,64.986572 241.163986,64.947258 
	C241.655014,64.944344 242.146774,65.069763 243.011734,65.187820 
M238.874710,69.074783 
	C237.769440,70.045952 236.425888,70.849609 235.603363,72.019554 
	C233.086777,75.599106 233.260345,81.714066 236.483719,83.671936 
	C238.263580,84.753029 242.299591,84.934937 243.358917,83.758171 
	C245.159042,81.758453 246.138016,78.364090 246.133804,75.557808 
	C246.128281,71.862373 243.955612,69.066223 238.874710,69.074783 
z"/>
<path fill="#EBD876" opacity="1.000000" stroke="none" 
	d="
M45.712395,73.230415 
	C47.376740,75.206764 48.800426,76.922211 50.802670,79.334778 
	C50.687275,73.954636 48.172001,69.264473 52.691475,65.010658 
	C57.525509,72.970428 53.254154,80.594582 53.770508,88.104752 
	C53.248238,88.354370 52.725971,88.603989 52.203705,88.853607 
	C48.199303,83.898727 44.194904,78.943855 39.920727,73.655167 
	C39.629116,78.913940 39.367722,83.627731 39.106331,88.341522 
	C38.497498,88.369499 37.888660,88.397484 37.279827,88.425461 
	C36.882385,87.668762 36.155205,86.918556 36.140144,86.154320 
	C36.028763,80.503365 35.978035,74.847633 36.115406,69.198448 
	C36.142017,68.104095 36.996880,66.190796 37.610485,66.132301 
	C38.733025,66.025291 40.219048,66.757851 41.088768,67.612946 
	C42.724277,69.220963 44.029301,71.165123 45.712395,73.230415 
z"/>
<path fill="#F4D160" opacity="1.000000" stroke="none" 
	d="
M98.076408,14.120794 
	C97.733116,14.594964 97.389824,15.069133 96.682533,16.046080 
	C98.819176,16.046080 100.528839,16.046080 102.493866,16.328907 
	C102.338028,20.654041 105.596313,18.190668 107.299324,19.086426 
	C108.419968,19.710495 109.243843,20.258938 110.067726,20.807379 
	C102.949585,20.282841 95.831451,19.758303 88.070404,18.899746 
	C85.948860,17.040415 84.470238,15.515103 82.996017,13.994852 
	C83.000435,13.999912 83.010567,14.009255 83.000702,13.632708 
	C82.992317,12.502816 82.993797,11.749471 83.017761,10.985676 
	C83.040245,10.975226 83.003670,11.004593 82.719330,11.096925 
	C79.273270,14.294182 76.250740,17.724670 71.048691,16.057487 
	C69.990463,16.006208 68.932228,15.954929 67.612213,15.638206 
	C68.224602,14.273630 69.098785,13.174497 69.983429,11.841931 
	C69.993896,11.608500 70.004250,11.141285 70.004250,11.141285 
	C78.585114,9.964772 87.165970,8.788260 96.228226,7.620759 
	C96.813171,7.765744 96.916718,7.901717 96.898697,8.302511 
	C96.253914,9.572772 95.730690,10.578214 95.130516,11.852361 
	C96.061172,12.787642 97.068794,13.454218 98.076408,14.120794 
M89.137390,15.358246 
	C89.668694,14.942964 90.199997,14.527681 90.731300,14.112400 
	C90.211189,13.911278 89.691078,13.710155 89.170967,13.509031 
	C89.019745,14.085593 88.868523,14.662155 89.137390,15.358246 
z"/>
<path fill="#F4D160" opacity="1.000000" stroke="none" 
	d="
M219.909927,29.021545 
	C219.863770,28.367096 219.827271,27.140696 219.770081,27.139730 
	C215.571472,27.068842 211.116623,26.191074 207.220367,27.288414 
	C196.862015,30.205725 186.395660,30.126804 175.594269,29.644226 
	C179.941727,28.888987 184.550339,28.439276 189.451355,27.961035 
	C188.877335,27.199856 188.394989,26.560238 187.912643,25.920624 
	C194.190582,24.984425 200.623077,24.624281 206.713715,22.990053 
	C218.757645,19.758455 227.104797,25.576498 234.701263,33.526222 
	C233.329132,33.474407 232.220032,33.155750 231.058762,32.815880 
	C231.006592,32.794662 230.851517,33.115433 230.703857,33.277359 
	C230.358734,33.655289 230.147644,33.857040 229.922943,34.044548 
	C228.164993,33.356949 226.407028,32.669346 224.474518,31.755833 
	C224.220947,30.907682 224.276230,29.808355 224.040771,29.742088 
	C222.702240,29.365389 221.294281,29.235430 219.909927,29.021545 
z"/>
<path fill="#F4D160" opacity="1.000000" stroke="none" 
	d="
M157.000336,63.839806 
	C155.280792,63.883537 153.561264,63.927261 151.051193,63.762482 
	C147.664047,63.291786 145.067429,63.029587 141.675400,62.687073 
	C143.957581,61.931957 145.473663,61.430325 146.989731,60.928692 
	C153.144775,60.319523 159.291916,59.303650 165.456451,59.183987 
	C179.224869,58.916725 193.002090,59.072483 206.775391,59.129581 
	C208.219742,59.135571 209.662048,59.634098 211.594223,60.140038 
	C212.025742,61.184219 211.968323,61.992474 211.910919,62.800728 
	C211.499710,62.843407 211.088486,62.886086 210.094849,62.628334 
	C207.783524,61.911606 206.047241,61.107555 204.326874,61.140308 
	C190.441788,61.404671 176.557663,61.769680 162.679047,62.266045 
	C160.769821,62.334324 158.892456,63.293232 157.000336,63.839806 
z"/>
<path fill="#F4D160" opacity="1.000000" stroke="none" 
	d="
M208.059357,65.103798 
	C210.333282,65.102943 212.290665,64.687714 213.935272,65.226738 
	C215.362305,65.694443 216.435150,67.242767 217.664536,68.313507 
	C216.286972,68.617882 214.916641,68.963303 213.528564,69.207993 
	C212.904694,69.317963 212.245361,69.226624 211.034363,69.226624 
	C211.034363,74.378319 211.213715,79.461472 210.917435,84.516747 
	C210.835953,85.906761 209.333038,87.213455 208.482361,88.558380 
	C207.668945,87.177071 206.243286,85.834015 206.154144,84.407455 
	C205.857925,79.666275 206.042145,74.895081 206.042145,70.522209 
	C205.348831,69.925133 205.132965,69.612411 204.842911,69.510262 
	C203.124847,68.905182 201.389572,68.348961 199.660095,67.776291 
	C201.315491,66.881828 202.914642,65.846596 204.650269,65.152863 
	C205.505707,64.810936 206.613434,65.100182 208.059357,65.103798 
z"/>
<path fill="#EBD876" opacity="1.000000" stroke="none" 
	d="
M110.488754,20.870352 
	C109.243843,20.258938 108.419968,19.710495 107.174744,18.818199 
	C106.512611,17.934587 106.271812,17.394829 106.031006,16.855068 
	C107.106689,16.906580 108.182373,16.958092 110.027954,17.223242 
	C113.874054,17.618896 116.950256,17.800913 120.026459,17.982929 
	C120.198906,18.012306 120.371346,18.041683 121.063858,18.316401 
	C123.422371,18.687649 125.260826,18.813559 127.099274,18.939468 
	C136.576843,20.404003 146.054413,21.868536 155.658447,23.899326 
	C155.197495,25.251192 154.610062,26.036806 154.022629,26.822418 
	C145.553482,25.445007 137.086517,24.053869 128.613510,22.700642 
	C126.692879,22.393896 124.751236,22.218748 122.094406,21.787785 
	C120.550468,21.405434 119.731392,21.218325 118.912308,21.031218 
	C118.912308,21.031218 118.426270,20.957718 118.002815,20.818542 
	C117.060036,20.728271 116.540710,20.777176 116.021385,20.826082 
	C114.317513,20.861830 112.613647,20.897577 110.488754,20.870352 
z"/>
<path fill="#F4D160" opacity="1.000000" stroke="none" 
	d="
M140.003464,77.944374 
	C140.003464,77.944374 140.099335,77.549423 140.436584,77.225922 
	C141.585403,76.159912 142.396957,75.417412 142.443146,75.375153 
	C143.569672,76.815308 144.531570,78.045006 145.493469,79.274704 
	C146.238708,78.710922 146.983932,78.147148 147.729172,77.583374 
	C146.830093,74.033836 145.931030,70.484299 145.031952,66.934761 
	C145.914291,66.763268 146.796600,66.591774 147.929535,66.893585 
	C148.345001,67.624275 148.545029,67.850563 148.780228,68.045746 
	C150.842636,73.064873 153.065201,78.027405 154.870758,83.137291 
	C155.418777,84.688309 154.814896,86.646347 154.738602,88.417961 
	C153.405640,87.382866 152.132233,86.256256 150.722656,85.338890 
	C149.363388,84.454285 147.937363,83.442139 146.405914,83.112946 
	C144.660187,82.737701 142.765381,83.055977 140.362762,82.803696 
	C139.526779,81.658440 139.263382,80.782333 138.999985,79.906219 
	C138.999985,79.906219 139.095932,79.468475 139.326355,79.095444 
	C139.762360,78.495605 139.911255,78.236252 140.003464,77.944374 
z"/>
<path fill="#F4D160" opacity="1.000000" stroke="none" 
	d="
M14.824623,67.117065 
	C17.227526,72.877213 19.714174,78.605156 21.953665,84.428154 
	C22.342115,85.438187 21.685297,86.850227 21.511280,88.076584 
	C20.164221,87.623268 18.229548,87.584740 17.567984,86.647537 
	C13.985227,81.572044 9.188682,81.456116 5.739131,86.576309 
	C5.327869,87.186737 4.576425,87.567993 2.736696,89.078430 
	C3.470308,85.905151 3.874649,84.156158 4.931508,82.089935 
	C10.769826,80.664032 13.584318,77.947876 12.921198,72.160851 
	C12.739265,70.573135 14.146585,68.803322 14.824623,67.117065 
z"/>
<path fill="#F4D160" opacity="1.000000" stroke="none" 
	d="
M124.927155,33.112595 
	C117.912903,29.722775 111.428009,29.756895 105.591301,35.710987 
	C104.740128,36.579281 102.941536,36.518837 101.236633,36.822731 
	C100.891922,36.757324 100.962013,36.824753 100.962013,36.824753 
	C105.423637,25.357845 117.467400,22.567999 128.490631,30.745745 
	C127.177483,31.762247 126.052322,32.437420 124.927155,33.112595 
z"/>
<path fill="#F4D160" opacity="1.000000" stroke="none" 
	d="
M212.329071,62.859653 
	C211.968323,61.992474 212.025742,61.184219 212.011612,60.136673 
	C211.022736,57.648720 210.056747,55.418461 209.197327,53.147869 
	C206.811798,46.845276 208.293121,41.007534 211.831116,35.529877 
	C212.863144,36.461388 213.490448,37.249798 214.117752,38.038208 
	C211.834625,46.533600 212.202301,54.494419 220.551590,62.150208 
	C216.861481,62.513515 214.804367,62.716045 212.329071,62.859653 
z"/>
<path fill="#F4D160" opacity="1.000000" stroke="none" 
	d="
M154.407303,26.919344 
	C154.610062,26.036806 155.197495,25.251192 155.910309,24.198288 
	C166.353134,24.607582 176.670578,25.284168 187.450348,25.940687 
	C188.394989,26.560238 188.877335,27.199856 189.451355,27.961035 
	C184.550339,28.439276 179.941727,28.888987 175.126160,29.567169 
	C174.499893,29.825464 174.080582,29.855291 173.102631,29.736031 
	C171.691177,29.667082 170.838333,29.747217 169.985489,29.827354 
	C164.920990,28.890326 159.856476,27.953299 154.407303,26.919344 
z"/>
<path fill="#F4D160" opacity="1.000000" stroke="none" 
	d="
M144.981491,4.313776 
	C155.842224,3.927576 165.899811,7.380937 175.845963,11.057940 
	C180.502075,12.779253 184.865189,15.293030 189.361099,17.447651 
	C189.139999,18.058615 188.918884,18.669580 188.697784,19.280544 
	C181.597137,17.061186 174.496475,14.841827 167.419312,12.307773 
	C168.073563,11.738522 168.704330,11.483967 170.603683,10.717454 
	C168.144196,10.338866 167.077072,10.174603 166.005432,10.005725 
	C166.000916,10.001111 165.991531,9.991804 165.701324,9.764923 
	C163.714188,8.982393 162.044662,8.314541 160.315170,7.892230 
	C155.216675,6.647264 150.094437,5.499551 144.981491,4.313776 
z"/>
<path fill="#F4D160" opacity="1.000000" stroke="none" 
	d="
M69.128281,85.234924 
	C69.115166,79.997200 68.949738,75.183601 69.215889,70.393990 
	C69.317238,68.570045 70.409309,66.801170 71.227303,64.510201 
	C74.611023,68.184174 74.984123,84.506012 72.151840,89.284981 
	C71.044922,87.952385 70.096420,86.810501 69.128281,85.234924 
z"/>
<path fill="#F4D160" opacity="1.000000" stroke="none" 
	d="
M78.017654,29.176271 
	C78.170692,29.118261 78.366882,29.100475 78.466957,28.993103 
	C78.629730,28.818455 78.729645,28.585213 78.856094,28.376698 
	C74.867729,27.895376 70.879372,27.414053 66.324806,26.713364 
	C68.828331,25.375502 71.898056,24.257006 74.967781,23.138512 
	C78.402672,23.509296 81.873428,23.707396 85.240112,24.406597 
	C85.862076,24.535767 86.753059,27.381437 86.341461,27.792048 
	C84.392883,29.735949 82.035507,31.270061 79.179680,32.925777 
	C77.595085,32.465885 76.654610,32.030411 75.489311,31.490835 
	C76.573715,30.498119 77.295685,29.837196 78.017654,29.176271 
z"/>
<path fill="#F4D160" opacity="1.000000" stroke="none" 
	d="
M65.966408,50.007977 
	C62.468025,48.216896 58.969639,46.425819 54.968857,44.169132 
	C52.936527,43.730824 51.406601,43.758129 49.876671,43.785435 
	C49.488678,43.819801 49.100681,43.854164 48.183968,43.744026 
	C47.313049,43.612282 46.970852,43.625034 46.628654,43.637791 
	C45.792656,43.690144 44.956654,43.742500 43.483105,43.394165 
	C39.649628,42.594131 36.453705,42.194790 33.107662,41.585976 
	C32.849045,41.243309 32.740540,41.110107 32.771027,40.697739 
	C33.076115,40.036465 33.242218,39.654350 33.408318,39.272240 
	C36.242470,39.239281 39.076618,39.206318 42.534958,39.474003 
	C44.102875,40.187420 45.046608,40.600189 46.422985,40.610855 
	C47.104664,39.903748 47.353703,39.598740 47.602741,39.293732 
	C47.913033,39.379120 48.223320,39.464508 48.938374,40.106163 
	C52.259747,40.831970 55.176353,41.001518 58.092964,41.171066 
	C59.933029,41.926029 61.773094,42.680992 63.941620,44.017250 
	C65.530975,45.388153 66.791878,46.177765 68.052780,46.967377 
	C68.052780,46.967377 68.005234,46.998894 68.016617,47.386597 
	C68.004730,48.874477 67.981445,49.974663 67.958160,51.074844 
	C67.792191,51.036942 67.626221,50.999043 67.065628,50.722160 
	C66.453171,50.299522 66.218307,50.141125 65.966408,50.007977 
z"/>
<path fill="#F4D160" opacity="1.000000" stroke="none" 
	d="
M69.972969,12.075361 
	C69.098785,13.174497 68.224602,14.273630 67.213745,15.615168 
	C61.919624,16.901676 56.773483,18.006870 51.599953,18.963984 
	C49.033066,19.438864 46.415829,19.641600 43.261292,19.714218 
	C43.138195,18.721415 43.404263,17.724155 44.048401,17.296917 
	C45.316471,16.455849 46.794430,15.931225 48.185562,15.275698 
	C50.168568,14.842018 52.151573,14.408340 54.978340,13.975564 
	C60.539059,13.342766 65.256012,12.709064 69.972969,12.075361 
z"/>
<path fill="#F4D160" opacity="1.000000" stroke="none" 
	d="
M125.092613,33.414703 
	C126.052322,32.437420 127.177483,31.762247 128.652542,31.057762 
	C135.444565,36.855141 137.672836,45.893166 133.422623,52.606739 
	C131.251221,45.569748 132.344818,37.625977 125.092613,33.414703 
z"/>
<path fill="#F4D160" opacity="1.000000" stroke="none" 
	d="
M187.062592,82.091286 
	C185.443710,84.321014 184.200989,87.904663 182.123016,88.482018 
	C178.461761,89.499260 173.844421,90.379265 171.020767,85.106857 
	C171.003601,83.599312 171.028671,82.837685 171.225708,82.190384 
	C172.283646,82.194145 173.169617,82.083572 174.055573,81.973007 
	C177.343033,86.199432 180.184692,86.339012 183.802002,81.842560 
	C184.530136,78.863251 184.606857,76.436798 185.064590,74.084503 
	C185.533920,71.672623 186.375992,69.333267 187.054932,66.962173 
	C187.054932,66.962173 187.001083,66.997086 186.885910,67.366318 
	C186.868027,72.520790 186.965317,77.306038 187.062592,82.091286 
z"/>
<path fill="#F4D160" opacity="1.000000" stroke="none" 
	d="
M68.119751,51.373680 
	C67.981445,49.974663 68.004730,48.874477 68.029770,47.361317 
	C71.854347,49.366119 75.663002,51.806747 79.507904,54.188854 
	C80.792885,54.984955 82.170502,55.631516 83.821426,56.940208 
	C85.070236,58.976109 86.003387,60.418236 86.936539,61.860367 
	C82.755104,59.849545 78.517700,57.945026 74.415031,55.784630 
	C72.249237,54.644154 70.318314,53.057640 68.119751,51.373680 
z"/>
<path fill="#F4D160" opacity="1.000000" stroke="none" 
	d="
M157.446350,63.893631 
	C158.892456,63.293232 160.769821,62.334324 162.679047,62.266045 
	C176.557663,61.769680 190.441788,61.404671 204.326874,61.140308 
	C206.047241,61.107555 207.783524,61.911606 209.786957,62.581818 
	C192.671768,63.206303 175.282059,63.576878 157.446350,63.893631 
z"/>
<path fill="#F4D160" opacity="1.000000" stroke="none" 
	d="
M146.614807,60.963615 
	C145.473663,61.430325 143.957581,61.931957 141.675400,62.687073 
	C145.067429,63.029587 147.664047,63.291786 150.627457,63.686470 
	C144.791840,64.102676 138.589417,64.386391 132.387009,64.670105 
	C132.089935,63.933872 131.792847,63.197636 131.495773,62.461395 
	C134.839432,59.734959 138.183105,57.008522 141.884735,54.606445 
	C142.513489,55.984276 142.784271,57.037746 143.055054,58.091221 
	C142.578400,58.841984 142.101746,59.592743 141.209229,60.998539 
	C143.253662,60.998539 144.746780,60.998539 146.614807,60.963615 
z"/>
<path fill="#F4D160" opacity="1.000000" stroke="none" 
	d="
M143.283081,58.029655 
	C142.784271,57.037746 142.513489,55.984276 142.234222,54.601059 
	C142.225754,54.271317 142.589722,54.112469 142.989426,53.977844 
	C143.652069,53.692680 143.880386,53.500927 144.074081,53.267963 
	C144.074081,53.267963 144.479385,53.114769 144.988953,52.980591 
	C146.342407,52.288998 147.186279,51.731586 148.030136,51.174171 
	C155.062119,51.131340 162.094101,51.088509 169.729248,51.255768 
	C170.459061,51.571236 170.599640,51.664139 170.708374,51.785549 
	C170.813995,51.903461 170.886963,52.050617 170.974289,52.184929 
	C169.498016,52.487099 168.034515,52.898972 166.543259,53.072281 
	C160.369446,53.789787 154.187241,54.435143 148.008118,55.106995 
	C147.213242,55.659523 146.418365,56.212051 145.137085,56.979076 
	C144.382568,57.352406 144.148621,57.551403 143.948837,57.790565 
	C143.948837,57.790565 143.511093,57.968086 143.283081,58.029655 
z"/>
<path fill="#F4D160" opacity="1.000000" stroke="none" 
	d="
M148.474976,55.059101 
	C154.187241,54.435143 160.369446,53.789787 166.543259,53.072281 
	C168.034515,52.898972 169.498016,52.487099 170.974289,52.184929 
	C170.886963,52.050617 170.813995,51.903461 170.708374,51.785549 
	C170.599640,51.664139 170.459061,51.571236 170.167480,51.325371 
	C174.025314,51.137623 178.048080,51.090351 182.557877,51.362293 
	C182.700363,52.728745 182.355835,53.775982 182.011292,54.823219 
	C170.988129,54.885883 159.964981,54.948544 148.474976,55.059101 
z"/>
<path fill="#F4D160" opacity="1.000000" stroke="none" 
	d="
M103.142921,84.084824 
	C103.142921,84.084824 103.022278,84.529541 102.702301,84.558426 
	C101.215927,83.404800 100.049530,82.222282 98.883141,81.039757 
	C96.794327,79.727890 94.705505,78.416023 92.160110,76.786964 
	C91.492538,76.275200 91.255821,76.119804 90.993393,76.003593 
	C90.993393,76.003593 91.000427,75.999664 90.896286,75.813644 
	C90.629189,75.388893 90.440742,75.172310 90.226822,74.977890 
	C90.226822,74.977890 90.081039,74.529793 90.066536,73.902451 
	C90.236862,71.444229 90.421692,69.613350 90.606522,67.782478 
	C90.606529,67.782478 90.361389,67.519791 90.681366,67.615311 
	C92.032661,69.131577 93.063972,70.552330 94.095291,71.973076 
	C96.623436,73.646149 99.241173,75.202881 101.636948,77.047836 
	C102.637123,77.818062 103.165329,79.201172 103.726471,80.869125 
	C103.410851,82.316704 103.276886,83.200760 103.142921,84.084824 
z"/>
<path fill="#F4D160" opacity="1.000000" stroke="none" 
	d="
M77.592285,29.100891 
	C77.295685,29.837196 76.573715,30.498119 75.489311,31.490835 
	C76.654610,32.030411 77.595085,32.465885 78.817795,32.974983 
	C72.764999,35.333248 66.330177,35.567139 59.636684,33.765709 
	C60.444347,32.902111 61.422436,32.260147 63.696041,30.767879 
	C60.384472,30.354763 58.637966,30.136889 56.891460,29.919012 
	C58.288063,29.616137 59.680351,29.077847 61.082039,29.052145 
	C66.442024,28.953863 71.805031,29.020470 77.592285,29.100891 
z"/>
<path fill="#F4D160" opacity="1.000000" stroke="none" 
	d="
M14.760682,66.802307 
	C14.146585,68.803322 12.739265,70.573135 12.921198,72.160851 
	C13.584318,77.947876 10.769826,80.664032 5.225653,81.884033 
	C6.676692,77.147644 8.322367,72.225838 10.450934,67.522568 
	C10.821128,66.704590 13.229665,66.809105 14.760682,66.802307 
z"/>
<path fill="#F4D160" opacity="1.000000" stroke="none" 
	d="
M231.110931,32.837097 
	C232.220032,33.155750 233.329132,33.474407 234.775223,33.871151 
	C235.452103,34.019527 235.714737,34.201389 235.892212,34.982571 
	C236.296799,36.630543 236.709305,37.790771 237.121811,38.950996 
	C239.362091,44.052040 238.394714,49.124859 236.650421,54.336628 
	C235.927673,52.071331 235.635101,49.643578 235.131210,47.260506 
	C234.601883,44.757111 233.870148,42.296516 233.226868,39.817215 
	C232.223526,38.094604 231.220184,36.371994 230.069885,34.346966 
	C230.147644,33.857040 230.358734,33.655289 230.768967,33.208000 
	C230.981720,32.976715 231.110931,32.837097 231.110931,32.837097 
z"/>
<path fill="#F4D160" opacity="1.000000" stroke="none" 
	d="
M56.433517,29.954302 
	C58.637966,30.136889 60.384472,30.354763 63.696041,30.767879 
	C61.422436,32.260147 60.444347,32.902111 59.211754,33.688538 
	C58.525127,33.856670 58.092999,33.880337 57.223770,33.799850 
	C56.507870,33.623646 56.262810,33.683216 56.051495,33.874413 
	C52.315639,33.570618 48.579781,33.266827 44.085606,32.723335 
	C41.190815,31.960880 39.054340,31.438124 37.300785,30.901066 
	C39.152874,30.591280 40.622047,30.295794 42.091221,30.000305 
	C46.719337,29.996733 51.347454,29.993162 56.433517,29.954302 
z"/>
<path fill="#F4D160" opacity="1.000000" stroke="none" 
	d="
M82.991608,13.989793 
	C84.470238,15.515103 85.948860,17.040415 87.686188,18.711929 
	C82.901901,19.213938 77.861107,19.606163 72.814980,19.909588 
	C70.430046,20.052992 69.240799,19.239328 70.895874,16.403366 
	C76.250740,17.724670 79.273270,14.294182 82.717499,11.094633 
	C83.000000,11.000009 82.995277,10.996126 82.995277,10.996126 
	C82.993797,11.749471 82.992317,12.502816 82.979279,13.641961 
	C82.967728,14.027761 82.991608,13.989793 82.991608,13.989793 
z"/>
<path fill="#F4D160" opacity="1.000000" stroke="none" 
	d="
M107.179710,4.225901 
	C113.807922,3.828485 120.436127,3.431068 127.357315,3.421456 
	C126.118416,4.537688 124.647438,5.471250 123.040894,5.948070 
	C120.411514,6.728470 117.693932,7.211721 115.013557,7.820313 
	C112.588379,7.783788 110.163193,7.747262 107.399445,7.491971 
	C107.100479,6.257438 107.140091,5.241669 107.179710,4.225901 
z"/>
<path fill="#F4D160" opacity="1.000000" stroke="none" 
	d="
M144.751511,4.212346 
	C150.094437,5.499551 155.216675,6.647264 160.315170,7.892230 
	C162.044662,8.314541 163.714188,8.982393 165.262177,9.782934 
	C163.057373,10.017204 161.001511,10.006582 158.945663,9.995960 
	C158.529083,9.945434 158.112518,9.894908 157.223145,9.513499 
	C155.500229,9.064485 154.250107,8.946353 153.000000,8.828220 
	C152.828400,8.862490 152.656799,8.896758 151.935791,8.761396 
	C150.562073,8.426602 149.737762,8.261437 148.913467,8.096273 
	C148.913467,8.096273 148.424332,7.993053 147.874390,7.779489 
	C145.542877,7.646863 143.761322,7.727802 141.979767,7.808740 
	C141.547455,7.838093 141.115143,7.867447 140.143982,7.578535 
	C137.410339,5.902271 135.215546,4.544273 133.020767,3.186276 
	C133.777512,3.136345 134.534256,3.086413 135.991638,3.244775 
	C139.139694,3.630831 141.587097,3.808595 144.034500,3.986359 
	C144.196838,4.027878 144.359192,4.069396 144.751511,4.212346 
z"/>
<path fill="#F4D160" opacity="1.000000" stroke="none" 
	d="
M94.048592,71.575569 
	C93.063972,70.552330 92.032661,69.131577 90.795174,67.476295 
	C90.129204,65.703453 89.669418,64.165131 89.317871,62.238228 
	C90.963753,61.533928 92.501389,61.218212 94.039024,60.902496 
	C95.127800,61.189690 96.216568,61.476883 97.705750,62.083443 
	C96.987717,63.312374 95.869293,64.221939 93.556557,66.102768 
	C97.198334,66.102768 99.622467,66.102768 102.046585,66.102768 
	C102.420029,67.195236 102.793465,68.287712 103.443863,70.190392 
	C100.800606,69.754730 99.071892,69.155396 97.409050,69.302185 
	C96.227333,69.406494 95.134430,70.516762 94.048592,71.575569 
z"/>
<path fill="#F4D160" opacity="1.000000" stroke="none" 
	d="
M35.931976,24.853493 
	C31.086922,24.676115 26.241867,24.498739 21.396812,24.321363 
	C21.407206,23.651922 21.417599,22.982481 21.427990,22.313040 
	C34.112389,22.313040 46.796787,22.313040 59.602837,22.781433 
	C59.516251,23.448790 59.315548,23.655079 58.738937,23.820557 
	C56.320972,23.485531 54.286442,23.198645 51.760719,22.889069 
	C47.368530,22.834639 43.457470,22.635071 39.572372,22.868183 
	C38.323696,22.943104 37.143501,24.159378 35.931976,24.853493 
z"/>
<path fill="#F4D160" opacity="1.000000" stroke="none" 
	d="
M47.740807,15.242754 
	C46.794430,15.931225 45.316471,16.455849 44.048401,17.296917 
	C43.404263,17.724155 43.138195,18.721415 42.840240,19.654221 
	C37.963829,20.208618 32.948383,20.569780 27.483959,20.655884 
	C27.368757,19.302853 27.702534,18.224878 28.036312,17.146900 
	C29.096115,17.127562 30.155922,17.108223 31.883873,17.304501 
	C33.694813,17.309982 34.837601,17.099848 35.980392,16.889713 
	C39.752277,16.329744 43.524166,15.769777 47.740807,15.242754 
z"/>
<path fill="#F4D160" opacity="1.000000" stroke="none" 
	d="
M98.917587,81.456497 
	C100.049530,82.222282 101.215927,83.404800 102.628632,84.776726 
	C100.909889,89.022049 93.557281,90.756638 90.477272,87.801651 
	C89.912338,87.259651 89.848701,86.195145 89.553673,85.371826 
	C90.393295,85.147507 91.221642,84.857269 92.074677,84.711296 
	C94.586494,84.281479 98.673538,87.720139 98.917587,81.456497 
z"/>
<path fill="#F4D160" opacity="1.000000" stroke="none" 
	d="
M26.954498,42.805611 
	C25.322550,42.937302 23.690603,43.068989 21.111116,43.277138 
	C22.685278,45.120716 23.871311,46.509739 25.286800,48.181450 
	C25.516254,48.464138 25.537806,48.479691 25.537806,48.479691 
	C25.537806,48.479691 25.810949,48.728981 25.886961,49.138901 
	C25.962973,49.548820 25.959606,50.041271 25.660652,50.073467 
	C24.601700,50.342037 23.841702,50.578411 23.081701,50.814781 
	C22.461046,50.415924 21.840391,50.017067 20.996494,49.066750 
	C20.208605,47.682148 19.643959,46.849007 19.079313,46.015865 
	C18.422564,44.907143 17.765814,43.798416 17.395811,42.245865 
	C19.146917,40.946491 20.611277,40.090950 22.075636,39.235409 
	C22.075636,39.235409 22.501307,39.130516 22.885015,39.439018 
	C24.497316,40.766888 25.725906,41.786251 26.954498,42.805611 
z"/>
<path fill="#F4D160" opacity="1.000000" stroke="none" 
	d="
M233.198517,40.243851 
	C233.870148,42.296516 234.601883,44.757111 235.131210,47.260506 
	C235.635101,49.643578 235.927673,52.071331 236.578156,54.733795 
	C235.106995,57.426346 233.370819,59.864544 231.634644,62.302742 
	C231.104675,62.066292 230.574692,61.829842 230.044724,61.593391 
	C230.931412,54.602009 236.453049,48.120918 233.198517,40.243851 
z"/>
<path fill="#F4D160" opacity="1.000000" stroke="none" 
	d="
M214.408310,37.857738 
	C213.490448,37.249798 212.863144,36.461388 212.152893,35.365833 
	C212.069962,35.058693 212.055435,35.000557 212.341766,34.853985 
	C212.833069,33.977661 213.038025,33.247910 213.242996,32.518158 
	C213.242996,32.518158 213.254562,32.402294 213.592484,32.332649 
	C214.287918,31.835964 214.645432,31.408920 215.002945,30.981876 
	C215.002945,30.981876 215.011566,31.012972 215.200043,30.915543 
	C215.643509,30.658892 215.867615,30.464142 216.060852,30.233868 
	C216.060852,30.233868 216.479294,30.093279 216.977386,29.986076 
	C218.005676,29.655876 218.535904,29.432875 219.066116,29.209873 
	C219.066116,29.209875 219.483032,29.089975 219.696472,29.055759 
	C221.294281,29.235430 222.702240,29.365389 224.040771,29.742088 
	C224.276230,29.808355 224.220947,30.907682 224.125092,31.658134 
	C220.866440,33.749989 217.782654,35.713627 214.408310,37.857738 
z"/>
<path fill="#EBD876" opacity="1.000000" stroke="none" 
	d="
M23.368305,50.991920 
	C23.841702,50.578411 24.601700,50.342037 25.896271,50.095482 
	C26.430843,50.085297 26.902128,50.062317 26.902128,50.062317 
	C26.902128,50.062317 26.967573,50.053680 27.095085,50.362106 
	C28.095465,51.126778 28.968334,51.583023 29.841202,52.039268 
	C32.106575,54.498638 34.371944,56.958008 36.637318,59.417377 
	C36.315430,59.832329 35.993542,60.247280 35.671658,60.662231 
	C33.915051,60.662231 32.158447,60.662231 30.295971,60.283920 
	C30.430679,59.584583 30.671257,59.263557 30.911835,58.942528 
	C28.492861,56.351376 26.073887,53.760220 23.368305,50.991920 
z"/>
<path fill="#F4D160" opacity="1.000000" stroke="none" 
	d="
M52.251915,22.911758 
	C54.286442,23.198645 56.320972,23.485531 59.070316,23.881647 
	C60.816738,24.925388 61.848339,25.859900 62.879944,26.794411 
	C54.427334,26.416256 45.974724,26.038101 37.690056,25.341164 
	C42.655972,24.318842 47.453941,23.615301 52.251915,22.911758 
z"/>
<path fill="#F4D160" opacity="1.000000" stroke="none" 
	d="
M96.306702,51.911163 
	C96.241150,51.187374 96.175598,50.463589 96.243584,49.181755 
	C96.306885,48.081890 96.236656,47.540070 96.166428,46.998253 
	C97.554512,43.719490 98.942612,40.440731 100.646362,36.993362 
	C100.962013,36.824753 100.891922,36.757324 100.853218,36.713699 
	C100.534210,40.193249 100.253906,43.716431 99.687439,47.819115 
	C98.369751,49.569466 97.338226,50.740314 96.306702,51.911163 
z"/>
<path fill="#F4D160" opacity="1.000000" stroke="none" 
	d="
M27.404793,42.846256 
	C25.725906,41.786251 24.497316,40.766888 23.097519,39.492802 
	C26.092417,39.222645 29.258520,39.207207 32.916473,39.232006 
	C33.242218,39.654350 33.076115,40.036465 32.714931,40.782692 
	C32.765823,41.363018 33.011803,41.579231 33.257778,41.795444 
	C36.453705,42.194790 39.649628,42.594131 43.234303,43.346794 
	C38.367062,43.429043 33.111076,43.157970 27.404793,42.846256 
z"/>
<path fill="#F4D160" opacity="1.000000" stroke="none" 
	d="
M171.053741,82.076050 
	C171.028671,82.837685 171.003601,83.599312 170.966339,84.741776 
	C170.340698,79.517799 169.581879,73.921349 169.258362,68.299850 
	C169.205017,67.373161 171.060394,66.336632 172.033661,65.350876 
	C172.682327,66.327766 173.330978,67.304665 173.575378,68.781441 
	C169.096100,72.988655 171.708450,77.802681 171.053741,82.076050 
z"/>
<path fill="#F4D160" opacity="1.000000" stroke="none" 
	d="
M144.739212,67.143173 
	C145.931030,70.484299 146.830093,74.033836 147.729172,77.583374 
	C146.983932,78.147148 146.238708,78.710922 145.493469,79.274704 
	C144.531570,78.045006 143.569672,76.815308 142.443146,75.375153 
	C142.396957,75.417412 141.585403,76.159912 140.530121,77.045517 
	C141.673080,73.909599 143.059769,70.630592 144.739212,67.143173 
z"/>
<path fill="#F4D160" opacity="1.000000" stroke="none" 
	d="
M132.760773,3.151901 
	C135.215546,4.544273 137.410339,5.902271 139.826538,7.503553 
	C131.996552,7.808979 123.945137,7.871119 115.453644,7.876786 
	C117.693932,7.211721 120.411514,6.728470 123.040894,5.948070 
	C124.647438,5.471250 126.118416,4.537688 127.814499,3.497815 
	C128.152298,3.163422 128.325882,3.140476 128.903198,3.348680 
	C130.198242,3.448782 131.089554,3.317734 131.980850,3.186686 
	C132.154160,3.163632 132.327469,3.140579 132.760773,3.151901 
z"/>
<path fill="#F4D160" opacity="1.000000" stroke="none" 
	d="
M98.507950,14.082684 
	C97.068794,13.454218 96.061172,12.787642 95.536514,11.944168 
	C99.001289,11.479483 101.983101,11.191696 105.272110,10.856686 
	C106.366920,10.582400 107.154526,10.355339 107.942139,10.128279 
	C109.324478,10.107972 110.706825,10.087665 112.494446,10.395185 
	C112.894043,11.081362 112.888351,11.439712 112.882660,11.798060 
	C108.234940,12.546898 103.587219,13.295735 98.507950,14.082684 
z"/>
<path fill="#F4D160" opacity="1.000000" stroke="none" 
	d="
M171.225723,82.190384 
	C171.708450,77.802681 169.096100,72.988655 173.505280,69.142776 
	C173.891327,73.020149 173.943237,77.036072 174.025360,81.512497 
	C173.169617,82.083572 172.283646,82.194145 171.225723,82.190384 
z"/>
<path fill="#F4D160" opacity="1.000000" stroke="none" 
	d="
M182.470505,54.883007 
	C182.355835,53.775982 182.700363,52.728745 183.015472,51.432793 
	C187.202621,51.799950 191.419205,52.415813 195.635788,53.031677 
	C195.566879,53.668716 195.497986,54.305752 195.429077,54.942791 
	C191.262619,54.942791 187.096161,54.942791 182.470505,54.883007 
z"/>
<path fill="#F4D160" opacity="1.000000" stroke="none" 
	d="
M102.003967,65.726303 
	C99.622467,66.102768 97.198334,66.102768 93.556557,66.102768 
	C95.869293,64.221939 96.987717,63.312374 98.024124,62.217415 
	C97.989220,61.841518 98.036339,61.651012 98.380692,61.110130 
	C99.392609,59.489712 100.107285,58.219681 100.821960,56.949646 
	C101.201759,59.749718 101.581551,62.549782 102.003967,65.726303 
z"/>
<path fill="#F4D160" opacity="1.000000" stroke="none" 
	d="
M100.842979,56.548893 
	C100.107285,58.219681 99.392609,59.489712 98.438385,60.821472 
	C97.520378,58.161594 96.841927,55.439999 96.235092,52.314781 
	C97.338226,50.740314 98.369751,49.569466 99.611298,48.205330 
	C100.168884,50.724075 100.516441,53.436108 100.842979,56.548893 
z"/>
<path fill="#F4D160" opacity="1.000000" stroke="none" 
	d="
M113.347984,11.860155 
	C112.888351,11.439712 112.894043,11.081362 112.905807,10.454344 
	C117.072540,9.725074 121.233200,9.264474 125.393860,8.803874 
	C125.488510,9.372394 125.583160,9.940914 125.677811,10.509434 
	C122.243546,13.500719 117.741478,11.322252 113.347984,11.860155 
z"/>
<path fill="#F4D160" opacity="1.000000" stroke="none" 
	d="
M51.760719,22.889071 
	C47.453941,23.615301 42.655972,24.318842 37.392166,25.033339 
	C36.759274,25.021124 36.592213,24.997953 36.178566,24.914137 
	C37.143501,24.159378 38.323696,22.943104 39.572372,22.868183 
	C43.457470,22.635071 47.368530,22.834639 51.760719,22.889071 
z"/>
<path fill="#F4D160" opacity="1.000000" stroke="none" 
	d="
M63.268944,26.860870 
	C61.848339,25.859900 60.816738,24.925388 59.453751,23.929787 
	C59.315548,23.655079 59.516251,23.448790 59.885208,23.104259 
	C64.723412,22.974220 69.400887,22.989746 74.523071,23.071890 
	C71.898056,24.257006 68.828331,25.375502 65.881844,26.674772 
	C65.222702,26.879475 64.440323,26.903404 63.268944,26.860870 
z"/>
<path fill="#F4D160" opacity="1.000000" stroke="none" 
	d="
M107.691963,9.953624 
	C107.154526,10.355339 106.366920,10.582400 105.295944,10.576756 
	C104.060844,9.646817 103.195168,8.587655 102.137451,8.336140 
	C100.500610,7.946921 98.732635,8.109244 97.020264,8.037690 
	C96.916718,7.901717 96.813171,7.765744 96.554688,7.425503 
	C97.362862,6.797338 98.325966,6.373443 99.883133,6.058444 
	C101.669350,5.849031 102.861511,5.530720 104.053665,5.212408 
	C104.870834,4.887275 105.688004,4.562141 106.842438,4.231454 
	C107.140091,5.241669 107.100479,6.257438 107.063324,7.653006 
	C107.191124,8.614861 107.316460,9.196915 107.691963,9.953624 
z"/>
<path fill="#F4D160" opacity="1.000000" stroke="none" 
	d="
M187.363342,81.789719 
	C186.965317,77.306038 186.868027,72.520790 186.908020,67.342880 
	C187.251541,71.796196 187.457794,76.642174 187.363342,81.789719 
z"/>
<path fill="#F4D160" opacity="1.000000" stroke="none" 
	d="
M36.917870,30.915367 
	C39.054340,31.438124 41.190815,31.960880 43.653538,32.652275 
	C39.296360,32.868896 34.612930,32.916885 29.466009,32.535133 
	C29.003101,31.122398 29.003687,30.139406 29.004272,29.156414 
	C29.449011,29.119946 29.893747,29.083479 30.864563,29.331551 
	C33.233051,30.049181 35.075459,30.482275 36.917870,30.915367 
z"/>
<path fill="#F4D160" opacity="1.000000" stroke="none" 
	d="
M93.805801,60.613529 
	C92.501389,61.218212 90.963753,61.533928 89.190979,61.961609 
	C88.505302,62.042416 88.054764,62.011253 87.270386,61.920227 
	C86.003387,60.418236 85.070236,58.976109 84.058388,57.209221 
	C87.177315,58.031166 90.374947,59.177864 93.805801,60.613529 
z"/>
<path fill="#F4D160" opacity="1.000000" stroke="none" 
	d="
M37.300785,30.901068 
	C35.075459,30.482275 33.233051,30.049181 31.195950,29.385738 
	C34.480110,29.261047 37.958961,29.366711 41.764519,29.736340 
	C40.622047,30.295794 39.152874,30.591280 37.300785,30.901068 
z"/>
<path fill="#F4D160" opacity="1.000000" stroke="none" 
	d="
M69.983429,11.841930 
	C65.256012,12.709064 60.539059,13.342766 55.369274,13.950115 
	C59.671280,12.970009 64.426117,12.016256 69.592606,11.101894 
	C70.004250,11.141285 69.993896,11.608500 69.983429,11.841930 
z"/>
<path fill="#F4D160" opacity="1.000000" stroke="none" 
	d="
M27.649990,17.117172 
	C27.702534,18.224878 27.368757,19.302853 27.040756,20.575199 
	C25.086643,20.539930 23.126757,20.310291 21.166870,20.080654 
	C21.220695,19.603060 21.274519,19.125467 21.328344,18.647875 
	C23.306786,18.127731 25.285227,17.607588 27.649990,17.117172 
z"/>
<path fill="#F4D160" opacity="1.000000" stroke="none" 
	d="
M138.691650,80.095192 
	C139.263382,80.782333 139.526779,81.658440 139.917816,82.853241 
	C139.160477,84.781090 138.275528,86.390251 137.390564,87.999420 
	C136.870453,87.785065 136.350327,87.570717 135.830215,87.356361 
	C136.681244,84.998962 137.532272,82.641563 138.691650,80.095192 
z"/>
<path fill="#F4D160" opacity="1.000000" stroke="none" 
	d="
M186.826996,66.646408 
	C186.375992,69.333267 185.533920,71.672623 185.064590,74.084503 
	C184.606857,76.436798 184.530136,78.863251 184.094513,81.621033 
	C183.946548,77.704140 183.834686,73.411865 184.149384,69.151100 
	C184.222900,68.156059 185.743988,67.267944 186.826996,66.646408 
z"/>
<path fill="#F4D160" opacity="1.000000" stroke="none" 
	d="
M28.620659,29.104242 
	C29.003687,30.139406 29.003101,31.122398 29.003645,32.474007 
	C27.121796,32.420235 25.238819,31.997847 23.355843,31.575459 
	C23.283312,31.207230 23.210781,30.838999 23.138250,30.470768 
	C24.837849,29.997869 26.537449,29.524971 28.620659,29.104242 
z"/>
<path fill="#F4D160" opacity="1.000000" stroke="none" 
	d="
M57.699188,41.070152 
	C55.176353,41.001518 52.259747,40.831970 49.055065,40.327320 
	C51.613132,40.317886 54.459270,40.643562 57.699188,41.070152 
z"/>
<path fill="#F4D160" opacity="1.000000" stroke="none" 
	d="
M105.836746,16.579836 
	C106.271812,17.394829 106.512611,17.934587 106.877991,18.742573 
	C105.596313,18.190668 102.338028,20.654041 102.872734,16.393528 
	C103.878319,16.218414 104.760399,16.261509 105.836746,16.579836 
z"/>
<path fill="#F4D160" opacity="1.000000" stroke="none" 
	d="
M159.158173,10.310335 
	C161.001511,10.006582 163.057373,10.017204 165.552368,10.009815 
	C165.991531,9.991804 166.000916,10.001111 165.987518,10.311730 
	C165.984558,11.030879 165.994980,11.439407 166.005417,11.847937 
	C163.793839,11.440195 161.582245,11.032453 159.158173,10.310335 
z"/>
<path fill="#F4D160" opacity="1.000000" stroke="none" 
	d="
M119.749878,17.673977 
	C116.950256,17.800913 113.874054,17.618896 110.423668,17.305071 
	C113.190750,17.237183 116.332024,17.301104 119.749878,17.673977 
z"/>
<path fill="#F4D160" opacity="1.000000" stroke="none" 
	d="
M143.786224,3.658002 
	C141.587097,3.808595 139.139694,3.630831 136.364899,3.321354 
	C138.537659,3.236308 141.037796,3.282977 143.786224,3.658002 
z"/>
<path fill="#F4D160" opacity="1.000000" stroke="none" 
	d="
M21.688910,39.204983 
	C20.611277,40.090950 19.146917,40.946491 17.431385,41.914467 
	C16.959553,38.771660 19.264227,39.165829 21.688910,39.204983 
z"/>
<path fill="#F4D160" opacity="1.000000" stroke="none" 
	d="
M126.829132,18.653114 
	C125.260826,18.813559 123.422371,18.687649 121.315811,18.389666 
	C122.884789,18.267313 124.721893,18.317036 126.829132,18.653114 
z"/>
<path fill="#F4D160" opacity="1.000000" stroke="none" 
	d="
M166.225662,11.915808 
	C165.994980,11.439407 165.984558,11.030879 165.992035,10.316344 
	C167.077072,10.174603 168.144196,10.338866 170.603683,10.717454 
	C168.704330,11.483967 168.073563,11.738522 167.171906,12.024902 
	C166.901016,12.056728 166.445908,11.983680 166.225662,11.915808 
z"/>
<path fill="#F4D160" opacity="1.000000" stroke="none" 
	d="
M103.688065,5.160172 
	C102.861511,5.530720 101.669350,5.849031 100.215080,6.020029 
	C101.076134,5.617789 102.199295,5.362863 103.688065,5.160172 
z"/>
<path fill="#F4D160" opacity="1.000000" stroke="none" 
	d="
M67.913422,46.675743 
	C66.791878,46.177765 65.530975,45.388153 64.136276,44.292725 
	C65.259682,44.785973 66.516876,45.585041 67.913422,46.675743 
z"/>
<path fill="#F4D160" opacity="1.000000" stroke="none" 
	d="
M153.327179,8.986228 
	C154.250107,8.946353 155.500229,9.064485 156.924835,9.413185 
	C155.950989,9.477248 154.802673,9.310742 153.327179,8.986228 
z"/>
<path fill="#F4D160" opacity="1.000000" stroke="none" 
	d="
M90.371155,68.047455 
	C90.421692,69.613350 90.236862,71.444229 90.021500,73.671188 
	C90.039238,72.149002 90.087517,70.230713 90.371155,68.047455 
z"/>
<path fill="#F4D160" opacity="1.000000" stroke="none" 
	d="
M131.614471,3.111380 
	C131.089554,3.317734 130.198242,3.448782 129.163574,3.383194 
	C129.762833,3.136397 130.505463,3.086235 131.614471,3.111380 
z"/>
<path fill="#F4D160" opacity="1.000000" stroke="none" 
	d="
M142.403275,7.879181 
	C143.761322,7.727802 145.542877,7.646863 147.637238,7.700457 
	C146.242294,7.873200 144.534531,7.911411 142.403275,7.879181 
z"/>
<path fill="#F4D160" opacity="1.000000" stroke="none" 
	d="
M237.082489,38.591553 
	C236.709305,37.790771 236.296799,36.630543 235.973785,35.213451 
	C236.389908,36.048424 236.716537,37.140263 237.082489,38.591553 
z"/>
<path fill="#F4D160" opacity="1.000000" stroke="none" 
	d="
M29.780937,51.721542 
	C28.968334,51.583023 28.095465,51.126778 27.094326,50.395103 
	C27.884260,50.547726 28.802467,50.975769 29.780937,51.721542 
z"/>
<path fill="#F4D160" opacity="1.000000" stroke="none" 
	d="
M50.301491,43.862007 
	C51.406601,43.758129 52.936527,43.730824 54.740410,43.902416 
	C53.585014,44.047070 52.155666,43.992825 50.301491,43.862007 
z"/>
<path fill="#F4D160" opacity="1.000000" stroke="none" 
	d="
M45.990345,41.012959 
	C45.046608,40.600189 44.102875,40.187420 42.959770,39.524872 
	C43.807541,39.209885 44.854691,39.144680 46.113701,39.587204 
	C46.213825,40.400940 46.102085,40.706947 45.990345,41.012959 
z"/>
<path fill="#F4D160" opacity="1.000000" stroke="none" 
	d="
M103.423157,83.891968 
	C103.276886,83.200760 103.410851,82.316704 103.684372,81.237869 
	C103.783745,81.928436 103.743568,82.813774 103.423157,83.891968 
z"/>
<path fill="#F4D160" opacity="1.000000" stroke="none" 
	d="
M35.584061,16.942436 
	C34.837601,17.099848 33.694813,17.309982 32.273300,17.389412 
	C33.058964,17.170856 34.123344,17.083008 35.584061,16.942436 
z"/>
<path fill="#F4D160" opacity="1.000000" stroke="none" 
	d="
M213.019501,32.706291 
	C213.038025,33.247910 212.833069,33.977661 212.371124,34.860706 
	C212.341446,34.307476 212.568726,33.600948 213.019501,32.706291 
z"/>
<path fill="#F4D160" opacity="1.000000" stroke="none" 
	d="
M147.703522,51.136848 
	C147.186279,51.731586 146.342407,52.288998 145.198212,52.924423 
	C145.724213,52.368134 146.550568,51.733826 147.703522,51.136848 
z"/>
<path fill="#F4D160" opacity="1.000000" stroke="none" 
	d="
M19.095135,46.338886 
	C19.643959,46.849007 20.208605,47.682148 20.858162,48.813477 
	C20.332371,48.295078 19.721664,47.478493 19.095135,46.338886 
z"/>
<path fill="#F4D160" opacity="1.000000" stroke="none" 
	d="
M30.589756,58.967308 
	C30.671257,59.263557 30.430679,59.584583 30.049551,59.980461 
	C29.909000,60.055317 29.442945,59.977589 29.215359,59.738831 
	C28.987774,59.500072 28.989401,59.155602 28.989401,59.155602 
	C29.415493,59.101097 29.841583,59.046593 30.589756,58.967308 
z"/>
<path fill="#F4D160" opacity="1.000000" stroke="none" 
	d="
M28.710718,59.099403 
	C28.989401,59.155602 28.987774,59.500072 28.988691,59.672249 
	C28.368103,59.844421 27.746599,59.844421 27.125093,59.844421 
	C27.093655,59.687195 27.062218,59.529964 27.030779,59.372738 
	C27.497864,59.262894 27.964951,59.153053 28.710718,59.099403 
z"/>
<path fill="#F4D160" opacity="1.000000" stroke="none" 
	d="
M149.118011,8.365376 
	C149.737762,8.261437 150.562073,8.426602 151.677155,8.716615 
	C151.086136,8.772468 150.204346,8.703473 149.118011,8.365376 
z"/>
<path fill="#F4D160" opacity="1.000000" stroke="none" 
	d="
M119.121086,21.294537 
	C119.731392,21.218325 120.550468,21.405434 121.659790,21.716341 
	C121.076637,21.746046 120.203247,21.651951 119.121086,21.294537 
z"/>
<path fill="#F4D160" opacity="1.000000" stroke="none" 
	d="
M170.363800,29.896378 
	C170.838333,29.747217 171.691177,29.667082 172.789917,29.686050 
	C172.271225,29.845240 171.506668,29.905321 170.363800,29.896378 
z"/>
<path fill="#F4D160" opacity="1.000000" stroke="none" 
	d="
M214.736389,31.064594 
	C214.645432,31.408920 214.287918,31.835964 213.650436,32.338245 
	C213.736923,31.991425 214.103363,31.569366 214.736389,31.064594 
z"/>
<path fill="#F4D160" opacity="1.000000" stroke="none" 
	d="
M116.343834,20.870167 
	C116.540710,20.777176 117.060036,20.728271 117.769302,20.741867 
	C117.528259,20.840996 117.097275,20.877625 116.343834,20.870167 
z"/>
<path fill="#F4D160" opacity="1.000000" stroke="none" 
	d="
M96.116829,47.334457 
	C96.236656,47.540070 96.306885,48.081890 96.297180,48.820175 
	C96.167236,48.567986 96.117233,48.119320 96.116829,47.334457 
z"/>
<path fill="#F4D160" opacity="1.000000" stroke="none" 
	d="
M218.751038,29.153088 
	C218.535904,29.432875 218.005676,29.655876 217.193268,29.940189 
	C217.419388,29.699768 217.927673,29.398035 218.751038,29.153088 
z"/>
<path fill="#F4D160" opacity="1.000000" stroke="none" 
	d="
M26.825079,49.834183 
	C26.902128,50.062317 26.430843,50.085297 26.195225,50.063286 
	C25.959606,50.041271 25.962973,49.548820 25.972216,49.302971 
	C26.310780,49.137032 26.566303,49.320004 26.825079,49.834183 
z"/>
<path fill="#F4D160" opacity="1.000000" stroke="none" 
	d="
M66.062378,50.224300 
	C66.218307,50.141125 66.453171,50.299522 66.828766,50.626743 
	C66.631065,50.859787 66.355011,50.749889 66.062378,50.224300 
z"/>
<path fill="#F4D160" opacity="1.000000" stroke="none" 
	d="
M139.775787,78.048088 
	C139.911255,78.236252 139.762360,78.495605 139.396790,78.882736 
	C139.340561,78.745964 139.444336,78.448883 139.775787,78.048088 
z"/>
<path fill="#F4D160" opacity="1.000000" stroke="none" 
	d="
M91.077942,76.228065 
	C91.255821,76.119804 91.492538,76.275200 91.855408,76.620178 
	C91.648308,76.870018 91.366714,76.764008 91.077942,76.228065 
z"/>
<path fill="#F4D160" opacity="1.000000" stroke="none" 
	d="
M90.229553,75.220367 
	C90.440742,75.172310 90.629189,75.388893 90.894386,75.817215 
	C90.648361,75.956863 90.393585,75.775551 90.229553,75.220367 
z"/>
<path fill="#F4D160" opacity="1.000000" stroke="none" 
	d="
M143.823212,53.259209 
	C143.880386,53.500927 143.652069,53.692680 143.182053,53.929703 
	C143.174103,53.760941 143.373230,53.505695 143.823212,53.259209 
z"/>
<path fill="#F4D160" opacity="1.000000" stroke="none" 
	d="
M46.862076,43.757889 
	C46.970852,43.625034 47.313049,43.612282 47.893665,43.704086 
	C47.786556,43.831760 47.441025,43.854874 46.862076,43.757889 
z"/>
<path fill="#F4D160" opacity="1.000000" stroke="none" 
	d="
M46.422985,40.610855 
	C46.102085,40.706947 46.213825,40.400940 46.502769,39.639435 
	C46.885086,39.069527 47.100925,39.043270 47.465122,39.199455 
	C47.353703,39.598740 47.104664,39.903748 46.422985,40.610855 
z"/>
<path fill="#F4D160" opacity="1.000000" stroke="none" 
	d="
M144.198929,57.776798 
	C144.148621,57.551403 144.382568,57.352406 144.862595,57.101025 
	C144.866013,57.259995 144.657516,57.511513 144.198929,57.776798 
z"/>
<path fill="#F4D160" opacity="1.000000" stroke="none" 
	d="
M148.775116,67.794731 
	C148.545029,67.850563 148.345001,67.624275 148.086304,67.159561 
	C148.251633,67.149399 148.510818,67.346558 148.775116,67.794731 
z"/>
<path fill="#F4D160" opacity="1.000000" stroke="none" 
	d="
M56.293800,33.915573 
	C56.262810,33.683216 56.507870,33.623646 56.900024,33.767441 
	C57.013382,33.839180 56.536102,33.956734 56.293800,33.915573 
z"/>
<path fill="#EBD876" opacity="1.000000" stroke="none" 
	d="
M25.562233,48.475349 
	C25.537806,48.479691 25.516254,48.464138 25.519239,48.467865 
	C25.522224,48.471588 25.586658,48.471004 25.562233,48.475349 
z"/>
<path fill="#F4D160" opacity="1.000000" stroke="none" 
	d="
M215.811279,30.232300 
	C215.867615,30.464142 215.643509,30.658892 215.185120,30.909464 
	C215.041412,30.643539 215.234756,30.386847 215.811279,30.232300 
z"/>
<path fill="#ffffff" opacity="1.000000" stroke="none" 
	d="
M239.261932,69.036453 
	C243.955612,69.066223 246.128281,71.862373 246.133804,75.557808 
	C246.138016,78.364090 245.159042,81.758453 243.358917,83.758171 
	C242.299591,84.934937 238.263580,84.753029 236.483719,83.671936 
	C233.260345,81.714066 233.086777,75.599106 235.603363,72.019554 
	C236.425888,70.849609 237.769440,70.045952 239.261932,69.036453 
z"/>
<path fill="#F4D160" opacity="1.000000" stroke="none" 
	d="
M96.898697,8.302511 
	C98.732635,8.109244 100.500610,7.946921 102.137451,8.336140 
	C103.195168,8.587655 104.060844,9.646817 104.988747,10.623980 
	C101.983101,11.191696 99.001289,11.479483 95.613480,11.675461 
	C95.730690,10.578214 96.253914,9.572772 96.898697,8.302511 
z"/>
<path fill="#F4D160" opacity="1.000000" stroke="none" 
	d="
M88.927353,15.298481 
	C88.868523,14.662155 89.019745,14.085593 89.170967,13.509032 
	C89.691078,13.710155 90.211189,13.911278 90.731300,14.112400 
	C90.199997,14.527681 89.668694,14.942964 88.927353,15.298481 
z"/>
<path fill="#F4D160" opacity="1.000000" stroke="none" 
	d="
M83.001831,11.002300 
	C83.003670,11.004593 83.040245,10.975226 83.017761,10.985676 
	C82.995277,10.996126 83.000000,11.000009 83.001831,11.002300 
z"/>
<path fill="#F4D160" opacity="1.000000" stroke="none" 
	d="
M230.916626,33.046074 
	C230.851517,33.115433 231.006592,32.794662 231.058762,32.815880 
	C231.110931,32.837097 230.981720,32.976715 230.916626,33.046074 
z"/>
<path fill="#F4D160" opacity="1.000000" stroke="none" 
	d="
M33.107662,41.585976 
	C33.011803,41.579231 32.765823,41.363018 32.575943,41.061852 
	C32.740540,41.110107 32.849045,41.243309 33.107662,41.585976 
z"/>
<path fill="#F4D160" opacity="1.000000" stroke="none" 
	d="
M82.996017,13.994852 
	C82.991608,13.989793 82.967728,14.027761 82.989151,14.018509 
	C83.010567,14.009255 83.000435,13.999912 82.996017,13.994852 
z"/>
</svg>